<mxfile host="app.diagrams.net" modified="2023-05-08T17:10:01.044Z" agent="Mozilla/5.0 (Windows NT 10.0; Win64; x64) AppleWebKit/537.36 (KHTML, like Gecko) Chrome/112.0.0.0 Safari/537.36" etag="kWxLgqGI9dEx3kG0FKP_" version="21.2.9" type="device">
  <diagram id="C5RBs43oDa-KdzZeNtuy" name="Page-1">
    <mxGraphModel dx="1615" dy="954" grid="1" gridSize="10" guides="1" tooltips="1" connect="1" arrows="1" fold="1" page="1" pageScale="1" pageWidth="827" pageHeight="1169" math="0" shadow="0">
      <root>
        <mxCell id="WIyWlLk6GJQsqaUBKTNV-0" />
        <mxCell id="WIyWlLk6GJQsqaUBKTNV-1" parent="WIyWlLk6GJQsqaUBKTNV-0" />
        <mxCell id="qnwnVQVi_l71vKuG2JNG-1" style="edgeStyle=orthogonalEdgeStyle;rounded=0;orthogonalLoop=1;jettySize=auto;html=1;" edge="1" parent="WIyWlLk6GJQsqaUBKTNV-1" source="qnwnVQVi_l71vKuG2JNG-0">
          <mxGeometry relative="1" as="geometry">
            <mxPoint x="331" y="330" as="targetPoint" />
          </mxGeometry>
        </mxCell>
        <mxCell id="qnwnVQVi_l71vKuG2JNG-0" value="&lt;font style=&quot;font-size: 24px;&quot;&gt;Start&lt;/font&gt;" style="ellipse;whiteSpace=wrap;html=1;" vertex="1" parent="WIyWlLk6GJQsqaUBKTNV-1">
          <mxGeometry x="271" y="220" width="120" height="80" as="geometry" />
        </mxCell>
        <mxCell id="qnwnVQVi_l71vKuG2JNG-4" style="edgeStyle=orthogonalEdgeStyle;rounded=0;orthogonalLoop=1;jettySize=auto;html=1;" edge="1" parent="WIyWlLk6GJQsqaUBKTNV-1" source="qnwnVQVi_l71vKuG2JNG-3" target="qnwnVQVi_l71vKuG2JNG-5">
          <mxGeometry relative="1" as="geometry">
            <mxPoint x="331" y="450" as="targetPoint" />
          </mxGeometry>
        </mxCell>
        <mxCell id="qnwnVQVi_l71vKuG2JNG-3" value="&lt;font style=&quot;font-size: 18px;&quot;&gt;Determine 3 values x,y,z inserted from user&lt;/font&gt;" style="shape=parallelogram;perimeter=parallelogramPerimeter;whiteSpace=wrap;html=1;fixedSize=1;align=center;" vertex="1" parent="WIyWlLk6GJQsqaUBKTNV-1">
          <mxGeometry x="136" y="330" width="390" height="80" as="geometry" />
        </mxCell>
        <mxCell id="qnwnVQVi_l71vKuG2JNG-6" style="edgeStyle=orthogonalEdgeStyle;rounded=0;orthogonalLoop=1;jettySize=auto;html=1;" edge="1" parent="WIyWlLk6GJQsqaUBKTNV-1" source="qnwnVQVi_l71vKuG2JNG-5" target="qnwnVQVi_l71vKuG2JNG-7">
          <mxGeometry relative="1" as="geometry">
            <mxPoint x="481" y="500" as="targetPoint" />
          </mxGeometry>
        </mxCell>
        <mxCell id="qnwnVQVi_l71vKuG2JNG-12" style="edgeStyle=orthogonalEdgeStyle;rounded=0;orthogonalLoop=1;jettySize=auto;html=1;" edge="1" parent="WIyWlLk6GJQsqaUBKTNV-1" source="qnwnVQVi_l71vKuG2JNG-5" target="qnwnVQVi_l71vKuG2JNG-14">
          <mxGeometry relative="1" as="geometry">
            <mxPoint x="331" y="600" as="targetPoint" />
          </mxGeometry>
        </mxCell>
        <mxCell id="qnwnVQVi_l71vKuG2JNG-5" value="Check if x == y" style="rhombus;whiteSpace=wrap;html=1;" vertex="1" parent="WIyWlLk6GJQsqaUBKTNV-1">
          <mxGeometry x="271" y="440" width="120" height="120" as="geometry" />
        </mxCell>
        <mxCell id="qnwnVQVi_l71vKuG2JNG-10" style="edgeStyle=orthogonalEdgeStyle;rounded=0;orthogonalLoop=1;jettySize=auto;html=1;" edge="1" parent="WIyWlLk6GJQsqaUBKTNV-1" source="qnwnVQVi_l71vKuG2JNG-7" target="qnwnVQVi_l71vKuG2JNG-11">
          <mxGeometry relative="1" as="geometry">
            <mxPoint x="601" y="500" as="targetPoint" />
          </mxGeometry>
        </mxCell>
        <mxCell id="qnwnVQVi_l71vKuG2JNG-17" style="edgeStyle=orthogonalEdgeStyle;rounded=0;orthogonalLoop=1;jettySize=auto;html=1;" edge="1" parent="WIyWlLk6GJQsqaUBKTNV-1" source="qnwnVQVi_l71vKuG2JNG-7">
          <mxGeometry relative="1" as="geometry">
            <mxPoint x="501" y="600" as="targetPoint" />
          </mxGeometry>
        </mxCell>
        <mxCell id="qnwnVQVi_l71vKuG2JNG-7" value="check if x == z" style="rhombus;whiteSpace=wrap;html=1;" vertex="1" parent="WIyWlLk6GJQsqaUBKTNV-1">
          <mxGeometry x="441" y="440" width="120" height="120" as="geometry" />
        </mxCell>
        <mxCell id="qnwnVQVi_l71vKuG2JNG-9" value="True" style="text;html=1;strokeColor=none;fillColor=none;align=center;verticalAlign=middle;whiteSpace=wrap;rounded=0;" vertex="1" parent="WIyWlLk6GJQsqaUBKTNV-1">
          <mxGeometry x="381" y="470" width="60" height="30" as="geometry" />
        </mxCell>
        <mxCell id="qnwnVQVi_l71vKuG2JNG-23" style="edgeStyle=orthogonalEdgeStyle;rounded=0;orthogonalLoop=1;jettySize=auto;html=1;" edge="1" parent="WIyWlLk6GJQsqaUBKTNV-1" source="qnwnVQVi_l71vKuG2JNG-11">
          <mxGeometry relative="1" as="geometry">
            <mxPoint x="631" y="840" as="targetPoint" />
          </mxGeometry>
        </mxCell>
        <mxCell id="qnwnVQVi_l71vKuG2JNG-11" value="All values are&lt;br&gt;EQUALS" style="shape=parallelogram;perimeter=parallelogramPerimeter;whiteSpace=wrap;html=1;fixedSize=1;" vertex="1" parent="WIyWlLk6GJQsqaUBKTNV-1">
          <mxGeometry x="571" y="470" width="120" height="60" as="geometry" />
        </mxCell>
        <mxCell id="qnwnVQVi_l71vKuG2JNG-19" style="edgeStyle=orthogonalEdgeStyle;rounded=0;orthogonalLoop=1;jettySize=auto;html=1;" edge="1" parent="WIyWlLk6GJQsqaUBKTNV-1" source="qnwnVQVi_l71vKuG2JNG-14" target="qnwnVQVi_l71vKuG2JNG-20">
          <mxGeometry relative="1" as="geometry">
            <mxPoint x="331" y="740" as="targetPoint" />
          </mxGeometry>
        </mxCell>
        <mxCell id="qnwnVQVi_l71vKuG2JNG-14" value="Get max value and min value using functions (max,min)" style="rounded=0;whiteSpace=wrap;html=1;" vertex="1" parent="WIyWlLk6GJQsqaUBKTNV-1">
          <mxGeometry x="271" y="640" width="120" height="60" as="geometry" />
        </mxCell>
        <mxCell id="qnwnVQVi_l71vKuG2JNG-18" value="" style="endArrow=classic;html=1;rounded=0;" edge="1" parent="WIyWlLk6GJQsqaUBKTNV-1">
          <mxGeometry width="50" height="50" relative="1" as="geometry">
            <mxPoint x="501" y="600" as="sourcePoint" />
            <mxPoint x="331" y="600" as="targetPoint" />
            <Array as="points">
              <mxPoint x="411" y="600" />
            </Array>
          </mxGeometry>
        </mxCell>
        <mxCell id="qnwnVQVi_l71vKuG2JNG-21" style="edgeStyle=orthogonalEdgeStyle;rounded=0;orthogonalLoop=1;jettySize=auto;html=1;" edge="1" parent="WIyWlLk6GJQsqaUBKTNV-1" source="qnwnVQVi_l71vKuG2JNG-20" target="qnwnVQVi_l71vKuG2JNG-22">
          <mxGeometry relative="1" as="geometry">
            <mxPoint x="331" y="860" as="targetPoint" />
          </mxGeometry>
        </mxCell>
        <mxCell id="qnwnVQVi_l71vKuG2JNG-20" value="Print Maximum and minimum value" style="shape=parallelogram;perimeter=parallelogramPerimeter;whiteSpace=wrap;html=1;fixedSize=1;" vertex="1" parent="WIyWlLk6GJQsqaUBKTNV-1">
          <mxGeometry x="221" y="750" width="220" height="60" as="geometry" />
        </mxCell>
        <mxCell id="qnwnVQVi_l71vKuG2JNG-22" value="Stop" style="ellipse;whiteSpace=wrap;html=1;" vertex="1" parent="WIyWlLk6GJQsqaUBKTNV-1">
          <mxGeometry x="271" y="870" width="120" height="80" as="geometry" />
        </mxCell>
        <mxCell id="qnwnVQVi_l71vKuG2JNG-24" value="" style="endArrow=classic;html=1;rounded=0;" edge="1" parent="WIyWlLk6GJQsqaUBKTNV-1">
          <mxGeometry width="50" height="50" relative="1" as="geometry">
            <mxPoint x="631" y="840" as="sourcePoint" />
            <mxPoint x="331" y="840" as="targetPoint" />
          </mxGeometry>
        </mxCell>
      </root>
    </mxGraphModel>
  </diagram>
</mxfile>
